<svg width="35" height="36" viewBox="0 0 35 36" fill="none" xmlns="http://www.w3.org/2000/svg">
<path d="M17.5 33C12.1875 33 7.5 30.2656 4.84375 26.2031C4.60938 25.8125 4.21875 25.5 3.75 25.5C2.73438 25.5 2.10938 26.5156 2.65625 27.375C5.78125 32.2969 11.25 35.5 17.5 35.5C27.1094 35.5 35 27.6875 35 18C35 8.39063 27.1094 0.5 17.5 0.5C13.0469 0.5 9.0625 2.14063 6.01563 4.79688L3.59375 2.375C3.20313 1.98438 2.65625 1.75 2.10938 1.75C0.9375 1.75 0 2.76562 0 3.9375V11.75C0 12.4531 0.546875 13 1.25 13H9.0625C10.2344 13 11.25 12.0625 11.25 10.8906C11.25 10.3438 11.0156 9.79688 10.625 9.40625L7.8125 6.59375C10.3906 4.40625 13.75 3 17.5 3C25.7813 3 32.5 9.71875 32.5 18C32.5 26.2813 25.7813 33 17.5 33Z" fill="#A4A4A4"/>
<path d="M15.1925 22.12C14.8325 22.12 14.4365 22.084 14.0045 22.012C13.5805 21.948 13.2445 21.868 12.9965 21.772V20.632C13.5965 20.88 14.2685 21.004 15.0125 21.004C15.6525 21.004 16.1205 20.912 16.4165 20.728C16.7125 20.536 16.8605 20.212 16.8605 19.756C16.8605 18.972 16.3285 18.58 15.2645 18.58H14.1005L14.2085 17.608H15.1805C16.1965 17.608 16.7045 17.208 16.7045 16.408C16.7045 16.016 16.5685 15.728 16.2965 15.544C16.0245 15.36 15.5965 15.268 15.0125 15.268C14.6925 15.268 14.3645 15.3 14.0285 15.364C13.7005 15.428 13.4045 15.516 13.1405 15.628V14.512C13.3965 14.408 13.7165 14.324 14.1005 14.26C14.4845 14.188 14.8565 14.152 15.2165 14.152C16.1285 14.152 16.8205 14.348 17.2925 14.74C17.7725 15.124 18.0125 15.64 18.0125 16.288C18.0125 16.696 17.9125 17.064 17.7125 17.392C17.5205 17.72 17.2325 17.952 16.8485 18.088C17.2965 18.208 17.6285 18.42 17.8445 18.724C18.0685 19.028 18.1805 19.4 18.1805 19.84C18.1805 20.592 17.9125 21.16 17.3765 21.544C16.8485 21.928 16.1205 22.12 15.1925 22.12ZM22.6151 22.216C21.4311 22.216 20.5671 21.876 20.0231 21.196C19.4871 20.516 19.2191 19.528 19.2191 18.232C19.2191 16.888 19.4831 15.872 20.0111 15.184C20.5391 14.496 21.4071 14.152 22.6151 14.152C23.8151 14.152 24.6791 14.496 25.2071 15.184C25.7351 15.872 25.9991 16.888 25.9991 18.232C25.9991 19.528 25.7271 20.516 25.1831 21.196C24.6471 21.876 23.7911 22.216 22.6151 22.216ZM22.6151 21.1C23.3511 21.1 23.8791 20.856 24.1991 20.368C24.5191 19.88 24.6791 19.168 24.6791 18.232C24.6791 17.232 24.5231 16.488 24.2111 16C23.8991 15.512 23.3671 15.268 22.6151 15.268C21.8551 15.268 21.3191 15.512 21.0071 16C20.6951 16.488 20.5391 17.232 20.5391 18.232C20.5391 19.176 20.6991 19.892 21.0191 20.38C21.3391 20.86 21.8711 21.1 22.6151 21.1Z" fill="#A4A4A4"/>
</svg>
