<svg width="35" height="36" viewBox="0 0 35 36" fill="none" xmlns="http://www.w3.org/2000/svg">
<path d="M30.0781 26.2031C30.3125 25.8125 30.7813 25.5 31.25 25.5C32.1875 25.5 32.8125 26.5156 32.2656 27.375C29.2188 32.2969 23.6719 35.5 17.5 35.5C7.8125 35.5 0 27.6875 0 18C0 8.39063 7.8125 0.5 17.5 0.5C21.875 0.5 25.8594 2.14063 28.9063 4.79688L31.3281 2.375C31.7188 1.98438 32.2656 1.75 32.8125 1.75C33.9844 1.75 35 2.76563 35 3.9375V11.75C35 12.4531 34.375 13 33.75 13H25.8594C24.6875 13 23.75 12.0625 23.75 10.8906C23.75 10.3438 23.9063 9.79688 24.375 9.40625L27.1875 6.59375C24.5313 4.40625 21.1719 3 17.5 3C9.21875 3 2.5 9.71875 2.5 18C2.5 26.2813 9.21875 33 17.5 33C22.7344 33 27.4219 30.2656 30.0781 26.2031Z" fill="#A4A4A4"/>
<path d="M12.1925 22.12C11.8325 22.12 11.4365 22.084 11.0045 22.012C10.5805 21.948 10.2445 21.868 9.99647 21.772V20.632C10.5965 20.88 11.2685 21.004 12.0125 21.004C12.6525 21.004 13.1205 20.912 13.4165 20.728C13.7125 20.536 13.8605 20.212 13.8605 19.756C13.8605 18.972 13.3285 18.58 12.2645 18.58H11.1005L11.2085 17.608H12.1805C13.1965 17.608 13.7045 17.208 13.7045 16.408C13.7045 16.016 13.5685 15.728 13.2965 15.544C13.0245 15.36 12.5965 15.268 12.0125 15.268C11.6925 15.268 11.3645 15.3 11.0285 15.364C10.7005 15.428 10.4045 15.516 10.1405 15.628V14.512C10.3965 14.408 10.7165 14.324 11.1005 14.26C11.4845 14.188 11.8565 14.152 12.2165 14.152C13.1285 14.152 13.8205 14.348 14.2925 14.74C14.7725 15.124 15.0125 15.64 15.0125 16.288C15.0125 16.696 14.9125 17.064 14.7125 17.392C14.5205 17.72 14.2325 17.952 13.8485 18.088C14.2965 18.208 14.6285 18.42 14.8445 18.724C15.0685 19.028 15.1805 19.4 15.1805 19.84C15.1805 20.592 14.9125 21.16 14.3765 21.544C13.8485 21.928 13.1205 22.12 12.1925 22.12ZM19.6151 22.216C18.4311 22.216 17.5671 21.876 17.0231 21.196C16.4871 20.516 16.2191 19.528 16.2191 18.232C16.2191 16.888 16.4831 15.872 17.0111 15.184C17.5391 14.496 18.4071 14.152 19.6151 14.152C20.8151 14.152 21.6791 14.496 22.2071 15.184C22.7351 15.872 22.9991 16.888 22.9991 18.232C22.9991 19.528 22.7271 20.516 22.1831 21.196C21.6471 21.876 20.7911 22.216 19.6151 22.216ZM19.6151 21.1C20.3511 21.1 20.8791 20.856 21.1991 20.368C21.5191 19.88 21.6791 19.168 21.6791 18.232C21.6791 17.232 21.5231 16.488 21.2111 16C20.8991 15.512 20.3671 15.268 19.6151 15.268C18.8551 15.268 18.3191 15.512 18.0071 16C17.6951 16.488 17.5391 17.232 17.5391 18.232C17.5391 19.176 17.6991 19.892 18.0191 20.38C18.3391 20.86 18.8711 21.1 19.6151 21.1Z" fill="#A4A4A4"/>
</svg>
